<?xml version="1.0" encoding="iso-8859-1"?>
<!-- Generator: Adobe Illustrator 16.0.0, SVG Export Plug-In . SVG Version: 6.00 Build 0)  -->
<!DOCTYPE svg PUBLIC "-//W3C//DTD SVG 1.1//EN" "http://www.w3.org/Graphics/SVG/1.1/DTD/svg11.dtd">
<svg version="1.1" id="Layer_1" xmlns="http://www.w3.org/2000/svg" xmlns:xlink="http://www.w3.org/1999/xlink" x="0px" y="0px"
	 width="16px" height="15.983px" viewBox="0 0 16 15.983" style="enable-background:new 0 0 16 15.983;" xml:space="preserve">
<path id="Email_1_x2C__At_1" d="M8,0C3.582,0,0,3.582,0,8c0,4.31,3.41,7.813,7.678,7.983c-0.025,0.003,0.457-0.01,0.525-0.024
	c1.123-0.092,2.247-0.404,3.292-0.999c0.479-0.28,0.649-0.89,0.37-1.37c-0.271-0.479-0.881-0.649-1.36-0.37
	c-0.876,0.49-1.806,0.732-2.747,0.769C4.559,13.859,2,11.232,2,8c0-3.314,2.688-6,6-6c3.314,0,6,2.686,6,6v1c0,0.552-0.449,1-1,1
	s-1-0.448-1-1c0,0,0-0.652,0-1c0-2.209-1.791-4-4-4S4,5.791,4,8s1.791,4,4,4c1.051,0,2-0.414,2.715-1.078
	C11.265,11.576,12.078,12,13,12c1.656,0,3-1.375,3-3.156V8C16,3.582,12.418,0,8,0z M8,10c-1.104,0-2-0.897-2-2s0.896-2,2-2
	s2,0.897,2,2S9.104,10,8,10z"/>
</svg>
