<?xml version="1.0" encoding="iso-8859-1"?>
<!-- Generator: Adobe Illustrator 16.0.0, SVG Export Plug-In . SVG Version: 6.00 Build 0)  -->
<!DOCTYPE svg PUBLIC "-//W3C//DTD SVG 1.1//EN" "http://www.w3.org/Graphics/SVG/1.1/DTD/svg11.dtd">
<svg version="1.1" id="Layer_1" xmlns="http://www.w3.org/2000/svg" xmlns:xlink="http://www.w3.org/1999/xlink" x="0px" y="0px"
	 width="16px" height="16px" viewBox="0 0 16 16" style="enable-background:new 0 0 16 16;" xml:space="preserve">
	<path d="M8,0C3.582,0,0,3.582,0,8s3.582,8,8,8s8-3.582,8-8S12.418,0,8,0z M8,14c-3.309,0-6-2.692-6-6s2.691-6,6-6
		c3.308,0,6,2.692,6,6S11.308,14,8,14z"/>
	<path d="M8.5,4h-1C7.224,4,7,4.224,7,4.5v1C7,5.776,7.224,6,7.5,6h1C8.776,6,9,5.776,9,5.5v-1C9,4.224,8.776,4,8.5,4z"/>
	<path d="M8.5,7h-1C7.224,7,7,7.224,7,7.5v4C7,11.776,7.224,12,7.5,12h1C8.776,12,9,11.776,9,11.5v-4C9,7.224,8.776,7,8.5,7z"/>
</svg>
