<?xml version="1.0" encoding="iso-8859-1"?>
<!-- Generator: Adobe Illustrator 16.0.0, SVG Export Plug-In . SVG Version: 6.00 Build 0)  -->
<!DOCTYPE svg PUBLIC "-//W3C//DTD SVG 1.1//EN" "http://www.w3.org/Graphics/SVG/1.1/DTD/svg11.dtd">
<svg version="1.1" id="Layer_1" xmlns="http://www.w3.org/2000/svg" xmlns:xlink="http://www.w3.org/1999/xlink" x="0px" y="0px"
	 width="12px" height="16px" viewBox="0 0 12 16" style="enable-background:new 0 0 12 16;" xml:space="preserve">
	<path d="M6,0C2.687,0,0,2.719,0,6.072c0,4.29,4.312,8.579,5.625,9.787C5.727,15.953,5.863,16,6,16s0.273-0.047,0.375-0.141
		C7.688,14.651,12,10.362,12,6.072C12,2.719,9.313,0,6,0z M6,13.449c-2.085-2.154-4.023-4.99-4.023-7.377C1.977,3.827,3.781,2,6,2
		s4.023,1.827,4.023,4.072C10.023,8.46,8.084,11.296,6,13.449z"/>
	<circle cx="6" cy="6" r="2"/>
</svg>
