<?xml version="1.0" encoding="iso-8859-1"?>
<!-- Generator: Adobe Illustrator 16.0.0, SVG Export Plug-In . SVG Version: 6.00 Build 0)  -->
<!DOCTYPE svg PUBLIC "-//W3C//DTD SVG 1.1//EN" "http://www.w3.org/Graphics/SVG/1.1/DTD/svg11.dtd">
<svg version="1.1" id="Layer_1" xmlns="http://www.w3.org/2000/svg" xmlns:xlink="http://www.w3.org/1999/xlink" x="0px" y="0px"
	 width="17.004px" height="16px" viewBox="0 0 17.004 16" style="enable-background:new 0 0 17.004 16;" xml:space="preserve">
<path id="Map_1_x2C__Location_1" d="M0.004,0.875v11.196c-0.041,0.762,0.251,1.137,0.895,1.473l4.658,2.371
	c0.247,0.126,0.64,0.11,0.876-0.035l4.571-2.791l5.105,2.599c0.494,0.251,0.895,0,0.895-0.562V3.929
	c0-0.721-0.041-1.054-0.895-1.473l-4.658-2.371c-0.247-0.126-0.64-0.11-0.876,0.035L6.004,2.911L0.898,0.312
	C0.404,0.062,0.004,0.312,0.004,0.875z M2.004,3.151l3,1.527v8.679l-3-1.526V3.151z M7.004,13.157V4.674l0.029-0.018l2.971-1.813
	v8.483l-0.029,0.018L7.004,13.157z M15.004,12.849l-3-1.527V2.643l3,1.526V12.849z"/>
</svg>
